<svg width="40" height="40" viewBox="0 0 40 40" fill="none" xmlns="http://www.w3.org/2000/svg">
<path d="M35 11.2165C34.9667 11.2165 34.9167 11.2165 34.8667 11.2165C26.05 10.3332 17.25 9.99988 8.53335 10.8832L5.13335 11.2165C4.43335 11.2832 3.81668 10.7832 3.75001 10.0832C3.68335 9.38321 4.18335 8.78321 4.86668 8.71655L8.26668 8.38321C17.1333 7.48321 26.1167 7.83321 35.1167 8.71655C35.8 8.78321 36.3 9.39988 36.2333 10.0832C36.1833 10.7332 35.6333 11.2165 35 11.2165Z" fill="#E70E42"/>
<path d="M14.1667 9.53325C14.1 9.53325 14.0333 9.53325 13.95 9.51659C13.2833 9.39992 12.8167 8.74992 12.9333 8.08325L13.3 5.89992C13.5667 4.29992 13.9333 2.08325 17.8167 2.08325H22.1833C26.0833 2.08325 26.45 4.38325 26.7 5.91659L27.0667 8.08325C27.1833 8.76659 26.7167 9.41659 26.05 9.51659C25.3667 9.63325 24.7167 9.16659 24.6167 8.49992L24.25 6.33325C24.0167 4.88325 23.9667 4.59992 22.2 4.59992H17.8333C16.0667 4.59992 16.0333 4.83325 15.7833 6.31659L15.4 8.48325C15.3 9.09992 14.7667 9.53325 14.1667 9.53325Z" fill="#E70E42"/>
<path d="M25.35 37.9165H14.65C8.83333 37.9165 8.59999 34.6999 8.41666 32.0999L7.33333 15.3165C7.28333 14.6332 7.81666 14.0332 8.49999 13.9832C9.19999 13.9499 9.78333 14.4665 9.83333 15.1499L10.9167 31.9332C11.1 34.4665 11.1667 35.4165 14.65 35.4165H25.35C28.85 35.4165 28.9167 34.4665 29.0833 31.9332L30.1667 15.1499C30.2167 14.4665 30.8167 13.9499 31.5 13.9832C32.1833 14.0332 32.7167 14.6165 32.6667 15.3165L31.5833 32.0999C31.4 34.6999 31.1667 37.9165 25.35 37.9165Z" fill="#E70E42"/>
<path d="M22.7667 28.75H17.2167C16.5333 28.75 15.9667 28.1833 15.9667 27.5C15.9667 26.8167 16.5333 26.25 17.2167 26.25H22.7667C23.45 26.25 24.0167 26.8167 24.0167 27.5C24.0167 28.1833 23.45 28.75 22.7667 28.75Z" fill="#E70E42"/>
<path d="M24.1666 22.0833H15.8333C15.15 22.0833 14.5833 21.5166 14.5833 20.8333C14.5833 20.1499 15.15 19.5833 15.8333 19.5833H24.1666C24.85 19.5833 25.4166 20.1499 25.4166 20.8333C25.4166 21.5166 24.85 22.0833 24.1666 22.0833Z" fill="#E70E42"/>
</svg>
