<svg width="28" height="27" viewBox="0 0 28 27" fill="none" xmlns="http://www.w3.org/2000/svg">
<path fill-rule="evenodd" clip-rule="evenodd" d="M2.25946 18.2881C-1.32148 9.55498 5.14484 0 14.6359 0H15.1636C22.253 0 28 5.7101 28 12.7539C28 20.6218 21.5805 27 13.6617 27H0.821032C0.472652 27 0.162207 26.7815 0.0465823 26.455C-0.0690431 26.1285 0.035332 25.765 0.306961 25.5483L3.5441 22.9653C3.82718 22.7394 3.92732 22.3556 3.79033 22.0215L2.25946 18.2881ZM15.8495 8.89126C15.8495 8.2155 15.2981 7.66769 14.618 7.66769C13.9379 7.66769 13.3865 8.2155 13.3865 8.89126V12.1541H10.1025C9.4224 12.1541 8.87105 12.7019 8.87105 13.3777C8.87105 14.0535 9.4224 14.6013 10.1025 14.6013H13.3865V17.8641C13.3865 18.5398 13.9379 19.0876 14.618 19.0876C15.2981 19.0876 15.8495 18.5398 15.8495 17.8641V14.6013H19.1334C19.8135 14.6013 20.3649 14.0535 20.3649 13.3777C20.3649 12.7019 19.8135 12.1541 19.1334 12.1541H15.8495V8.89126Z" fill="white"/>
</svg>
