<svg width="16" height="17" viewBox="0 0 16 17" fill="none" xmlns="http://www.w3.org/2000/svg">
<path d="M15.9983 8.41724C15.996 8.18329 15.9842 7.95098 15.9621 7.72229C15.8881 6.95989 15.7058 6.22907 15.4327 5.54399C15.4123 5.49299 15.3935 5.44133 15.3718 5.39098C15.0079 4.53118 14.4968 3.74837 13.8713 3.07283C13.8302 3.02874 13.7884 2.98531 13.7466 2.94253C13.6285 2.81979 13.507 2.70002 13.3813 2.58518C11.9592 1.29038 10.0704 0.5 7.99998 0.5C5.91213 0.5 4.00986 1.30452 2.58374 2.61907C2.25139 2.92542 1.94603 3.25973 1.66897 3.61774C0.623888 4.96947 0 6.66275 0 8.49983C0 12.9114 3.589 16.5 8.00031 16.5C11.1033 16.5 13.7973 14.7231 15.1234 12.1342C15.407 11.5807 15.6278 10.9907 15.7765 10.3725C15.8144 10.2155 15.8469 10.0579 15.8752 9.89829C15.9559 9.44388 16 8.97663 16 8.49983C16.0003 8.47219 15.9986 8.44488 15.9983 8.41724ZM14.4926 5.21988L14.539 5.16789C14.5998 5.28601 14.6568 5.40612 14.711 5.52787L14.6354 5.5249L14.4926 5.54465V5.21988ZM13.3366 3.82405L13.3379 3.4667C13.4636 3.59997 13.5847 3.73718 13.7005 3.87933L13.5564 4.09387L13.0526 4.08926L13.021 3.9843L13.3366 3.82405ZM3.68607 2.93595V2.92246H3.84632L3.86014 2.86751H4.1224V2.98202L4.04704 3.0827H3.68574L3.68607 2.93595ZM3.94208 3.29297C3.94208 3.29297 4.10232 3.26566 4.11615 3.26566C4.12997 3.26566 4.11615 3.42557 4.11615 3.42557L3.75484 3.44828L3.68607 3.36601L3.94208 3.29297ZM15.0023 6.46862H14.4169L14.0602 6.20307L13.6847 6.2396V6.46862H13.5659L13.4376 6.37714L12.7874 6.21229V5.7911L11.9634 5.85527L11.7081 5.99248H11.381L11.2208 5.97636L10.8236 6.19682V6.61175L10.0118 7.19746L10.0793 7.44754H10.2438L10.2007 7.68577L10.0849 7.72821L10.0786 8.35077L10.7802 9.14971H11.0855L11.104 9.10101H11.6528L11.8111 8.95458H12.1224L12.2932 9.12568L12.7571 9.17373L12.6956 9.79069L13.2106 10.6999L12.9394 11.2181L12.9578 11.4623L13.1714 11.6752V12.2622L13.4518 12.6393V13.1269H13.6939C12.3461 14.7817 10.2948 15.8416 7.99965 15.8416C3.95162 15.8419 0.658109 12.5481 0.658109 8.49983C0.658109 7.48077 0.867388 6.50942 1.24416 5.62658V5.39756L1.50674 5.07871C1.59789 4.90662 1.69562 4.73881 1.79993 4.57527L1.81178 4.70853L1.50674 5.07871C1.4123 5.25706 1.32412 5.43935 1.24416 5.62658L1.24449 6.04447L1.54952 6.19123V6.772L1.84205 7.27117L2.07995 7.30769L2.11056 7.13659L1.82987 6.70356L1.77492 6.2827H1.93945L2.00888 6.71573L2.4146 7.30769L2.30996 7.49887L2.56794 7.8934L3.20861 8.052V7.94835L3.46495 7.98487L3.4406 8.16782L3.64198 8.20468L3.95293 8.28957L4.39222 8.79006L4.95326 8.8325L5.00821 9.29021L4.62421 9.55871L4.60611 9.96739L4.55116 10.2175L5.1066 10.9127L5.14905 11.151C5.14905 11.151 5.35043 11.2056 5.37511 11.2056C5.39946 11.2056 5.82657 11.5291 5.82657 11.5291V12.7857L5.97892 12.8285L5.87527 13.4083L6.13161 13.7501L6.08422 14.3247L6.42282 14.9199L6.8575 15.2996L7.29449 15.3075L7.33726 15.167L7.01611 14.8965L7.03453 14.7623L7.09212 14.5978L7.10429 14.43L6.88712 14.4234L6.77754 14.2858L6.95786 14.1124L6.98221 13.9815L6.78083 13.9239L6.79268 13.8021L7.07961 13.7587L7.51594 13.5491L7.66237 13.2806L8.12008 12.6949L8.0161 12.2368L8.15661 11.993L8.57747 12.0058L8.86079 11.7814L8.95226 10.8976L9.26651 10.4985L9.32146 10.2421L9.03486 10.1503L8.84565 9.84005L8.19906 9.83347L7.68639 9.63801L7.66204 9.27244L7.49093 8.97334L7.02729 8.96642L6.75944 8.5459L6.52154 8.42975L6.50936 8.55808L6.07632 8.58374L5.91772 8.36295L5.46593 8.27115L5.09377 8.70121L4.50805 8.60184L4.4656 7.94177L4.03816 7.86872L4.2096 7.54493L4.16057 7.35902L3.59887 7.73447L3.24547 7.69136L3.11944 7.41529L3.19644 7.13066L3.39124 6.77167L3.83974 6.54463L4.70581 6.5443L4.70351 6.80852L5.01479 6.9533L4.99011 6.50185L5.21453 6.27612L5.66731 5.97866L5.69824 5.76939L6.1497 5.29951L6.62979 5.03363L6.58735 4.99875L6.91245 4.69274L7.03157 4.72433L7.08619 4.79277L7.20959 4.65589L7.23986 4.6424L7.10462 4.62331L6.9674 4.57757V4.44595L7.04013 4.3864H7.20038L7.27375 4.41864L7.33726 4.54697L7.41492 4.53513V4.52394L7.43729 4.53151L7.66237 4.49696L7.69429 4.38705L7.82262 4.4193V4.53842L7.7035 4.62035L7.72127 4.75098L8.12897 4.87668C8.12897 4.87668 8.1293 4.87832 8.12996 4.88161L8.22374 4.87372L8.22999 4.69702L7.90686 4.54993L7.88843 4.46504L8.15661 4.37356L8.16845 4.1169L7.8881 3.94613L7.86967 3.51343L7.48534 3.7023H7.34516L7.38201 3.37293L6.85882 3.24953L6.6423 3.41307V3.91191L6.25303 4.0353L6.09705 4.3604L5.92792 4.38771V3.97179L5.56201 3.92112L5.37906 3.802L5.30535 3.53251L5.95984 3.1495L6.28001 3.0521L6.31226 3.2673L6.4906 3.25809L6.50442 3.14983L6.691 3.12318L6.69429 3.08534L6.614 3.0521L6.59557 2.93759L6.82492 2.91818L6.96346 2.77406L6.97102 2.76353L7.01479 2.72075L7.49685 2.65988L7.71008 2.84085L7.15102 3.13864L7.86243 3.30646L7.95457 3.06855H8.26553L8.37543 2.86125L8.15562 2.8063V2.54405L7.46625 2.23869L6.99044 2.29364L6.72193 2.43415L6.74036 2.7757L6.45967 2.73293L6.41657 2.54405L6.6854 2.2999L6.19742 2.27555L6.05724 2.31799L5.99636 2.48252L6.17932 2.51345L6.14279 2.6964L5.83184 2.71483L5.78314 2.83658L5.332 2.84908C5.332 2.84908 5.3195 2.59308 5.3014 2.59308C5.2833 2.59308 5.65513 2.58683 5.65513 2.58683L5.92397 2.32425L5.77721 2.25087L5.58208 2.4404L5.25829 2.42197L5.06317 2.15347H4.64823L4.21519 2.47693H4.61203L4.64823 2.59308L4.54523 2.68883L4.98452 2.70101L5.05165 2.85961L4.55708 2.84118L4.53306 2.71911L4.2221 2.65198L4.05724 2.5605L3.68706 2.56346C4.89897 1.68063 6.38926 1.1581 7.99998 1.1581C9.85651 1.1581 11.5528 1.85206 12.847 2.99222L12.7598 3.14818L12.4212 3.28079L12.2783 3.43577L12.3113 3.61642L12.486 3.64077L12.5913 3.90401L12.8927 3.78259L12.9424 4.13467H12.8516L12.6041 4.09815L12.3297 4.14422L12.0641 4.51933L11.6844 4.57889L11.6295 4.90399L11.7897 4.94183L11.7433 5.15078L11.3662 5.07509L11.0204 5.15078L10.947 5.34327L11.0069 5.74734L11.2099 5.84244L11.5505 5.84046L11.7805 5.81973L11.8506 5.63678L12.2099 5.16986L12.4465 5.21823L12.6795 5.00764L12.7229 5.17216L13.2961 5.5588L13.226 5.6529L12.9677 5.63908L13.0671 5.77992L13.226 5.8148L13.4123 5.73714L13.4083 5.51273L13.4909 5.47127L13.4244 5.40085L13.0421 5.18763L12.9414 4.90432H13.2593L13.3609 5.00501L13.6347 5.24093L13.6462 5.52622L13.9299 5.82829L14.0355 5.41434L14.2319 5.30707L14.2688 5.64566L14.4606 5.85626L14.8433 5.84968C14.9174 6.04019 14.9838 6.234 15.0421 6.43176L15.0023 6.46862ZM4.36359 4.13467L4.55576 4.0432L4.7295 4.08466L4.66962 4.31795L4.48205 4.37751L4.36359 4.13467ZM5.38334 4.68386V4.83489H4.94438L4.77985 4.78915L4.82098 4.68386L5.0319 4.59666H5.32016V4.68386H5.38334ZM5.58537 4.89445V5.04087L5.47547 5.11162L5.33858 5.13696C5.33858 5.13696 5.33858 4.91748 5.33858 4.89445H5.58537ZM5.46165 4.83489V4.66082L5.61269 4.79836L5.46165 4.83489ZM5.53042 5.18697V5.32945L5.42545 5.43474H5.19215L5.22868 5.27483L5.33891 5.26529L5.36162 5.21033L5.53042 5.18697ZM4.94931 4.89445H5.19183L4.88087 5.32912L4.75254 5.26035L4.78018 5.0774L4.94931 4.89445ZM5.9424 5.13696V5.2791H5.7091L5.64526 5.18697V5.05469H5.66369L5.9424 5.13696ZM5.72687 4.9415L5.79334 4.87174L5.90555 4.9415L5.81571 5.01554L5.72687 4.9415ZM15.1214 6.83912L15.1444 6.81214C15.154 6.8536 15.1642 6.89506 15.1734 6.93718L15.1214 6.83912Z" fill="#009AD8"/>
</svg>
