<svg width="500" height="500" viewBox="0 0 500 500" fill="none" xmlns="http://www.w3.org/2000/svg">
<path d="M488.395 244.17C483.215 190.47 456.245 136.9 432.975 107.31C334.365 -18.09 136.445 -17.85 42.1848 139.66C15.5948 184.08 -1.09523 282.85 18.6548 355.9C43.9248 449.4 143.505 485.81 254.245 485C357.715 484.2 439.075 439.21 469.535 377.06C488.595 338.13 493.575 297.87 488.395 244.17Z" fill="#014A67"/>
<path d="M42.1848 139.66C15.5948 184.08 -1.09523 282.85 18.6548 355.9C22.8134 371.584 29.5121 386.481 38.4848 400L148.485 336.53L242.135 282.39L462.255 155.32C453.095 136.32 442.715 119.7 432.975 107.32C334.365 -18.09 136.445 -17.85 42.1848 139.66Z" fill="#1A3543"/>
<g opacity="0.2">
<path opacity="0.2" d="M42.3548 215.1C43.4778 214.368 44.4125 213.382 45.0832 212.221C45.7538 211.061 46.1415 209.758 46.2148 208.42V200.62C46.2148 198.16 44.4848 197.16 42.3548 198.39L16.8848 213.1C15.7148 219.1 14.6748 225.31 13.7748 231.6L42.3548 215.1Z" fill="black"/>
<path opacity="0.2" d="M33.2748 157.43L42.3548 152.18C43.4778 151.448 44.4125 150.462 45.0832 149.301C45.7538 148.141 46.1415 146.838 46.2148 145.5V137.7C46.2742 137.197 46.1857 136.688 45.9601 136.235C45.7345 135.783 45.3817 135.405 44.9448 135.15C44.0181 136.637 43.0981 138.14 42.1848 139.66C38.8093 145.371 35.8322 151.309 33.2748 157.43Z" fill="black"/>
<path opacity="0.2" d="M81.1348 88.82L88.8348 84.37C89.9544 83.6401 90.8864 82.6569 91.5553 81.4998C92.2241 80.3428 92.6111 79.0444 92.6848 77.71C88.7381 81.2366 84.8881 84.94 81.1348 88.82Z" fill="black"/>
<path opacity="0.2" d="M46.2148 290.49V282.69C46.2148 280.23 44.4848 279.23 42.3548 280.46L10.3548 298.96C10.5681 304.32 10.9281 309.667 11.4348 315L42.3548 297.15C43.4751 296.42 44.4082 295.437 45.0788 294.28C45.7493 293.123 46.1384 291.825 46.2148 290.49Z" fill="black"/>
<path opacity="0.2" d="M139.135 174V166.2C139.135 163.74 137.405 162.74 135.275 163.97L99.5748 184.58C98.4531 185.312 97.5199 186.299 96.8509 187.46C96.182 188.62 95.7962 189.922 95.7248 191.26V199.06C95.7248 201.52 97.4448 202.52 99.5748 201.29L135.275 180.68C136.398 179.948 137.332 178.962 138.003 177.801C138.674 176.641 139.061 175.339 139.135 174Z" fill="black"/>
<path opacity="0.2" d="M19.5648 359.05C20.3248 361.62 21.1248 364.16 21.9948 366.65V361.77C21.9948 359.9 20.9848 358.88 19.5648 359.05Z" fill="black"/>
<path opacity="0.2" d="M19.8148 267.68C20.9365 266.948 21.8697 265.961 22.5386 264.801C23.2076 263.64 23.5934 262.338 23.6648 261V253.2C23.6648 250.74 21.9448 249.74 19.8148 250.97L11.1348 256C10.6814 261.72 10.3714 267.47 10.2048 273.25L19.8148 267.68Z" fill="black"/>
<path opacity="0.2" d="M145.995 133.52L181.685 112.91C182.808 112.178 183.743 111.192 184.413 110.031C185.084 108.871 185.471 107.568 185.545 106.23V98.4198C185.545 95.9698 183.815 94.9698 181.685 96.1998L145.995 116.81C144.872 117.542 143.937 118.528 143.266 119.688C142.596 120.849 142.208 122.151 142.135 123.49V131.29C142.135 133.75 143.865 134.75 145.995 133.52Z" fill="black"/>
<path opacity="0.2" d="M169.885 263.28L205.585 242.67C206.706 241.939 207.639 240.954 208.307 239.795C208.976 238.636 209.363 237.336 209.435 236V228.19C209.435 225.73 207.715 224.74 205.585 225.97L169.885 246.58C168.764 247.311 167.831 248.295 167.162 249.454C166.493 250.613 166.107 251.914 166.035 253.25V261.06C166.035 263.52 167.755 264.51 169.885 263.28Z" fill="black"/>
<path opacity="0.2" d="M77.0048 111.65L112.695 90.9999C113.818 90.2681 114.752 89.2819 115.423 88.1213C116.094 86.9607 116.481 85.6583 116.555 84.3199V76.5199C116.555 74.0599 114.825 73.0599 112.695 74.2899L77.0048 94.9399C75.8799 95.6707 74.9432 96.6564 74.2708 97.8171C73.5984 98.9777 73.2092 100.281 73.1348 101.62V109.42C73.1348 111.88 74.8748 112.88 77.0048 111.65Z" fill="black"/>
<path opacity="0.2" d="M142.135 172.32C142.135 174.78 143.865 175.78 145.995 174.55L181.685 153.94C182.808 153.208 183.743 152.222 184.413 151.061C185.084 149.901 185.471 148.598 185.545 147.26V139.46C185.545 137 183.815 136 181.685 137.23L145.995 157.84C144.872 158.572 143.937 159.558 143.266 160.719C142.596 161.879 142.208 163.181 142.135 164.52V172.32Z" fill="black"/>
<path opacity="0.2" d="M88.8048 272.84L53.1348 293.45C52.0118 294.182 51.077 295.168 50.4064 296.328C49.7358 297.489 49.3481 298.791 49.2748 300.13V307.93C49.2748 310.39 51.0048 311.39 53.1348 310.16L88.8348 289.55C89.9565 288.817 90.8897 287.831 91.5586 286.67C92.2276 285.509 92.6134 284.207 92.6848 282.87V275.07C92.6548 272.61 90.9348 271.61 88.8048 272.84Z" fill="black"/>
<path opacity="0.2" d="M231.735 17.6699C221.024 18.4623 210.381 20.0027 199.885 22.2799L192.435 26.5799C191.312 27.3118 190.377 28.298 189.706 29.4586C189.036 30.6192 188.648 31.9215 188.575 33.2599V41.0699C188.575 43.5299 190.305 44.5199 192.435 43.2899L228.135 22.6799C229.916 21.5154 231.199 19.7293 231.735 17.6699Z" fill="black"/>
<path opacity="0.2" d="M116.555 248.5V240.7C116.555 238.24 114.825 237.24 112.695 238.47L77.0048 259.08C75.8799 259.811 74.9432 260.797 74.2708 261.957C73.5984 263.118 73.2092 264.421 73.1348 265.76V273.56C73.1348 276.02 74.8648 277.02 76.9948 275.79L112.685 255.18C113.81 254.449 114.746 253.464 115.419 252.303C116.091 251.142 116.48 249.839 116.555 248.5Z" fill="black"/>
<path opacity="0.2" d="M162.995 303.8V296C162.995 293.54 161.275 292.54 159.145 293.77L123.445 314.38C122.322 315.112 121.387 316.098 120.716 317.259C120.046 318.419 119.658 319.721 119.585 321.06V328.86C119.585 331.32 121.315 332.32 123.445 331.09L159.135 310.48C160.258 309.749 161.193 308.763 161.864 307.602C162.535 306.441 162.922 305.139 162.995 303.8Z" fill="black"/>
<path opacity="0.2" d="M285.315 217.35L321.015 196.74C322.138 196.008 323.072 195.022 323.743 193.862C324.414 192.701 324.801 191.399 324.875 190.06V182.26C324.875 179.8 323.145 178.8 321.015 180.03L285.315 200.64C284.193 201.373 283.26 202.359 282.591 203.52C281.922 204.68 281.536 205.982 281.465 207.32V215.12C281.465 217.58 283.185 218.58 285.315 217.35Z" fill="black"/>
<path opacity="0.2" d="M309.215 224L344.915 203.39C346.036 202.658 346.97 201.671 347.639 200.51C348.308 199.35 348.693 198.048 348.765 196.71V188.91C348.765 186.45 347.045 185.45 344.915 186.68L309.215 207.29C308.092 208.022 307.157 209.008 306.486 210.169C305.816 211.329 305.428 212.632 305.355 213.97V221.77C305.355 224.24 307.135 225.24 309.215 224Z" fill="black"/>
<path opacity="0.2" d="M281.465 107.2V115C281.465 117.46 283.185 118.46 285.315 117.23L321.015 96.62C322.138 95.8882 323.072 94.902 323.743 93.7414C324.414 92.5808 324.801 91.2785 324.875 89.94V82.14C324.875 79.68 323.145 78.68 321.015 79.91L285.315 100.52C284.193 101.252 283.26 102.239 282.591 103.4C281.922 104.56 281.536 105.862 281.465 107.2Z" fill="black"/>
<path opacity="0.2" d="M305.675 33C304.552 33.7319 303.617 34.7181 302.946 35.8787C302.276 37.0393 301.888 38.3416 301.815 39.68V47.49C301.815 49.94 303.545 50.94 305.675 49.71L334.025 33.3C328.098 30.9533 322.075 28.8533 315.955 27L305.675 33Z" fill="black"/>
<path opacity="0.2" d="M298.465 72.3099L262.775 92.9199C261.652 93.6518 260.717 94.638 260.046 95.7986C259.376 96.9592 258.988 98.2615 258.915 99.5999V107.4C258.915 109.86 260.645 110.86 262.775 109.63L298.465 88.9999C299.588 88.2681 300.522 87.2819 301.193 86.1213C301.864 84.9607 302.251 83.6584 302.325 82.3199V74.5199C302.325 72.0799 300.595 71.0799 298.465 72.3099Z" fill="black"/>
<path opacity="0.2" d="M348.765 106.85C348.765 104.39 347.045 103.39 344.915 104.62L309.215 125.23C308.092 125.962 307.157 126.948 306.486 128.109C305.816 129.269 305.428 130.572 305.355 131.91V139.71C305.355 142.17 307.085 143.17 309.215 141.94L344.915 121.33C346.036 120.598 346.97 119.611 347.639 118.45C348.308 117.29 348.693 115.988 348.765 114.65V106.85Z" fill="black"/>
<path opacity="0.2" d="M437.795 133.16L402.135 153.76C401.012 154.492 400.077 155.478 399.406 156.639C398.736 157.799 398.348 159.102 398.275 160.44V168.25C398.275 170.71 399.995 171.7 402.125 170.47L437.825 149.86C438.948 149.128 439.882 148.142 440.553 146.981C441.224 145.821 441.611 144.519 441.685 143.18V135.38C441.655 132.92 439.925 131.93 437.795 133.16Z" fill="black"/>
<path opacity="0.2" d="M437.285 113L424.645 120.32C423.522 121.052 422.587 122.038 421.916 123.199C421.246 124.359 420.858 125.662 420.785 127V134.8C420.785 137.26 422.515 138.26 424.645 137.03L445.445 125.03C442.718 120.743 439.998 116.733 437.285 113Z" fill="black"/>
<path opacity="0.2" d="M255.885 168.19V160.39C255.885 157.93 254.155 156.93 252.025 158.16L216.325 178.77C215.204 179.504 214.272 180.49 213.603 181.651C212.934 182.811 212.548 184.113 212.475 185.45V193.25C212.475 195.71 214.205 196.71 216.325 195.48L252.025 174.87C253.148 174.138 254.082 173.152 254.753 171.991C255.424 170.831 255.811 169.528 255.885 168.19Z" fill="black"/>
<path opacity="0.2" d="M391.355 77.85L355.655 98.46C354.533 99.1924 353.6 100.179 352.931 101.34C352.262 102.5 351.876 103.802 351.805 105.14V112.94C351.805 115.4 353.525 116.4 355.655 115.17L391.355 94.56C392.478 93.8281 393.412 92.8419 394.083 91.6813C394.754 90.5207 395.141 89.2184 395.215 87.88V80.08C395.215 77.62 393.485 76.62 391.355 77.85Z" fill="black"/>
<path opacity="0.2" d="M228.135 233.57L192.435 254.18C191.312 254.912 190.377 255.898 189.706 257.058C189.036 258.219 188.648 259.521 188.575 260.86V268.66C188.575 271.12 190.305 272.12 192.435 270.89L228.135 250.28C229.258 249.548 230.192 248.562 230.863 247.401C231.534 246.24 231.921 244.938 231.995 243.6V235.8C231.985 233.34 230.255 232.34 228.135 233.57Z" fill="black"/>
<path opacity="0.2" d="M42.0348 382.92C43.1565 382.187 44.0897 381.201 44.7586 380.04C45.4276 378.88 45.8134 377.578 45.8848 376.24V368.44C45.8848 365.98 44.1648 364.98 42.0348 366.21L25.5048 375.75C27.3812 380.212 29.4805 384.578 31.7948 388.83L42.0348 382.92Z" fill="black"/>
<path opacity="0.2" d="M374.345 153.78V161.58C374.345 164.04 376.075 165.04 378.205 163.81L413.895 143.2C415.018 142.468 415.952 141.482 416.623 140.321C417.294 139.161 417.681 137.859 417.755 136.52V128.72C417.755 126.26 416.025 125.26 413.895 126.49L378.205 147.1C377.082 147.832 376.147 148.818 375.476 149.979C374.806 151.139 374.418 152.442 374.345 153.78Z" fill="black"/>
</g>
<path opacity="0.15" d="M387.18 462.28C380.221 458.094 372.707 454.909 364.86 452.82C354.8 449.94 342.86 447.82 334.34 444.33C323.22 439.8 318.24 433.09 317.91 425.65C317.72 421.44 319.51 416.47 328.49 412.02C331.119 410.704 333.91 409.739 336.79 409.15C340.814 408.411 344.936 408.38 348.97 409.06C367.09 411.74 375.64 418.72 382.61 425.69C389.58 432.66 397.32 436.16 411.11 441.69C417.01 444.04 423.29 446.27 428.9 448.69L429.03 448.75C431.846 449.826 434.589 451.085 437.24 452.52C440.9 454.82 444.19 457.27 445.82 460.13C447.45 462.99 447.33 466.31 444.31 469.84C443.311 471.033 442.034 471.96 440.59 472.54C438.758 473.276 436.849 473.806 434.9 474.12C431.068 474.815 427.171 475.08 423.28 474.91C420.197 474.75 417.133 474.332 414.12 473.66C404.502 471.602 395.361 467.74 387.18 462.28Z" fill="black"/>
<g filter="url(#filter0_b_616_3211)">
<path d="M241.45 118.88C241.45 87.8804 230.56 66.0904 212.97 55.9304C195.38 45.7704 171.07 47.2404 144.21 62.7504C90.51 93.7504 47 169.15 47 231.16C47 262.16 57.89 283.95 75.48 294.1C93.07 304.25 117.38 302.79 144.24 287.29C197.92 256.29 241.45 180.89 241.45 118.88Z" fill="#FDF3DD"/>
</g>
<path opacity="0.2" d="M303.46 266.59L111.46 299.67C97.8 301.92 85.54 299.92 75.46 294.11C57.87 283.94 47 262.16 47 231.16C47 169.16 90.54 93.7502 144.24 62.7402C171.09 47.2402 195.4 45.7402 212.99 55.9302C223.05 61.7402 230.91 71.3502 235.8 84.3102L303.46 266.59Z" fill="white"/>
<path opacity="0.2" d="M303.46 266.59L111.46 299.67C97.8 301.92 85.54 299.92 75.46 294.11C57.87 283.94 47 262.16 47 231.16C47 169.16 90.54 93.7502 144.24 62.7402C171.09 47.2402 195.4 45.7402 212.99 55.9302C223.05 61.7402 230.91 71.3502 235.8 84.3102L303.46 266.59Z" fill="white"/>
<g opacity="0.3">
<path opacity="0.2" d="M89.67 272.841L65.76 286.641C68.6531 289.541 71.9142 292.049 75.46 294.101C76.54 294.731 77.64 295.311 78.77 295.841L89.67 289.551C90.7917 288.818 91.7249 287.832 92.3939 286.671C93.0628 285.51 93.4486 284.208 93.52 282.871V275.071C93.52 272.611 91.8 271.611 89.67 272.841Z" fill="#747C80"/>
<path opacity="0.2" d="M143 131.29C143 133.75 144.73 134.75 146.86 133.52L182.55 112.91C183.673 112.178 184.608 111.192 185.278 110.032C185.949 108.871 186.337 107.569 186.41 106.23V98.4203C186.41 95.9703 184.68 94.9703 182.55 96.2003L146.86 116.81C145.737 117.542 144.802 118.528 144.132 119.689C143.461 120.85 143.073 122.152 143 123.49V131.29Z" fill="#747C80"/>
<path opacity="0.2" d="M182.55 137.23L146.86 157.84C145.737 158.572 144.802 159.558 144.132 160.719C143.461 161.88 143.073 163.182 143 164.52V172.32C143 174.78 144.73 175.78 146.86 174.55L182.55 153.94C183.673 153.209 184.608 152.222 185.278 151.062C185.949 149.901 186.337 148.599 186.41 147.26V139.46C186.41 137 184.68 136 182.55 137.23Z" fill="#747C80"/>
<path opacity="0.2" d="M117.42 84.3605V82.5405C112.366 87.1636 107.553 92.0433 103 97.1605L113.56 91.0005C114.678 90.2726 115.609 89.2927 116.28 88.1395C116.95 86.9864 117.341 85.692 117.42 84.3605Z" fill="#747C80"/>
<path opacity="0.2" d="M205.8 226.34L170.75 246.58C169.629 247.311 168.696 248.296 168.027 249.455C167.358 250.614 166.972 251.914 166.9 253.25V261.06C166.9 263.52 168.62 264.51 170.75 263.28L181.75 256.92C190.641 247.446 198.688 237.214 205.8 226.34Z" fill="#747C80"/>
<path opacity="0.2" d="M217.19 178.771C216.069 179.504 215.137 180.491 214.468 181.651C213.799 182.812 213.413 184.113 213.34 185.451V193.251C213.34 195.711 215.07 196.711 217.19 195.481L224.94 191.011C227.973 184.037 230.643 176.911 232.94 169.661L217.19 178.771Z" fill="#747C80"/>
<path opacity="0.2" d="M117.42 248.501V240.701C117.42 238.241 115.69 237.241 113.56 238.471L77.87 259.081C76.7451 259.811 75.8085 260.797 75.136 261.958C74.4636 263.118 74.0744 264.421 74 265.761V273.561C74 276.021 75.73 277.021 77.86 275.791L113.55 255.181C114.675 254.45 115.612 253.464 116.284 252.303C116.956 251.143 117.346 249.84 117.42 248.501Z" fill="#747C80"/>
<path opacity="0.2" d="M136.11 164.001L100.41 184.611C99.2883 185.343 98.3551 186.33 97.6862 187.49C97.0172 188.651 96.6314 189.953 96.56 191.291V199.091C96.56 201.551 98.28 202.551 100.41 201.321L136.11 180.711C137.243 179.979 138.186 178.99 138.862 177.823C139.538 176.657 139.928 175.347 140 174.001V166.201C140 163.771 138.24 162.771 136.11 164.001Z" fill="#747C80"/>
</g>
<path d="M432.88 261.2L423.13 238.09C418.47 226.18 420.22 210.09 420.22 210.09C425.83 209.99 431.09 211.89 434.73 218.48C438.37 225.07 445.55 248.48 447.19 253.57C448.65 257.948 449.458 262.517 449.59 267.13C449.91 273.01 448.41 283.83 448.02 289.68C447.84 292.39 447.87 294.99 447.88 297.68C447.89 300.37 447.16 303.28 446.78 306.11C446.556 307.448 445.984 308.704 445.12 309.75C444.58 310.42 443.72 310.64 443.21 311.27C442.7 311.9 442.71 312.83 441.93 313.41C441.15 313.99 439.93 313.96 439.2 314.6C438.498 315.359 437.75 316.073 436.96 316.74C436.191 317.123 435.528 317.69 435.03 318.39C434.6 319.08 434.32 320.5 433.33 320.58C432.34 320.66 431.85 319.65 431.63 318.75C431.339 316.964 431.626 315.132 432.45 313.52C433.29 311.84 433.73 309.99 434.77 308.42C435.627 306.866 436.129 305.141 436.24 303.37C436.37 302.18 436 300.76 434.67 301.69C433.1 302.78 431.59 304.75 429.47 304.78C428 304.78 427.72 303.69 428.37 302.6C429.45 300.806 430.396 298.934 431.2 297C432.02 295 432.63 293 433.51 291.05C433.986 290.031 434.531 289.046 435.14 288.1C436.79 285.45 436.14 282.37 435.85 279.45C435.43 275.4 433.77 266.37 432.88 261.2Z" fill="#FFA8A7"/>
<path d="M419.27 209.17C427.18 209.76 431.6 211.38 435.82 219.17C440.04 226.96 445.67 245.74 446.9 249.61C448.496 254.28 449.504 259.131 449.9 264.05C450.124 266.868 450.144 269.699 449.96 272.52C449.96 272.52 448.89 274.59 442.56 274.59C436.23 274.59 434.36 273.48 434.36 273.48L432.36 261.4L419.36 232.72L419.27 209.17Z" fill="#455A64"/>
<path d="M327 421.14C326.36 420.86 325.83 422.48 326 423.38C326.46 425.99 329 429.45 333.42 432.06C337.84 434.67 347.68 436.44 350.56 437.25C353.44 438.06 357.89 441.1 360.56 442.47C365.46 444.97 369.46 444.68 371.68 443.57C372.068 443.324 372.402 443.001 372.66 442.621C372.918 442.241 373.095 441.812 373.18 441.36C373.76 439.36 373.72 438.93 373.5 438.87L327 421.14Z" fill="#263238"/>
<path d="M374.77 433C374.519 435.487 373.903 437.924 372.94 440.23C372.367 440.785 371.684 441.213 370.934 441.485C370.184 441.757 369.385 441.868 368.59 441.81C364.87 441.81 361.59 440.5 358.17 438.5C355.973 437.119 353.597 436.042 351.11 435.3C348.11 434.51 341.42 433.07 338.46 432.16C335.693 431.31 333.13 429.901 330.93 428.02C329.28 426.49 326.93 423.53 326.81 421.81C327.31 418.07 328.35 416.09 330.81 415.55C333.27 415.01 336.52 415.72 340.87 416.77C342.17 417.09 343.79 417.53 344.5 417.68C347.16 418.22 349.62 418.81 351.61 419.31C353.264 419.862 355.02 420.037 356.75 419.82C357.539 419.742 358.276 419.388 358.83 418.82C359.53 418.05 359.94 416.73 360.76 416.91C360.76 416.91 374.49 424.08 375.63 424.58C376.9 425.09 375.39 426.74 374.77 433Z" fill="#37474F"/>
<path d="M326.81 421.77C327.03 419.17 327.94 415.77 331 415.36C335.58 414.74 340.06 416.61 344.46 417.64L339.12 416.41C332.96 415.12 327.74 413.68 326.81 421.77Z" fill="white"/>
<path d="M343.38 417.14C342.823 417.336 342.315 417.65 341.89 418.06C341.431 418.505 341.024 419.001 340.68 419.54C340.25 420.22 341.11 420.66 341.75 419.92C342.244 419.294 342.811 418.73 343.44 418.24C343.886 417.906 344.433 417.733 344.99 417.75L345.75 417.91C345.74 417.3 344.06 417 343.38 417.14Z" fill="#FAFAFA"/>
<path d="M350.18 418.49C349.944 418.386 349.688 418.332 349.43 418.332C349.172 418.332 348.916 418.386 348.68 418.49C348.071 418.74 347.545 419.156 347.16 419.69C346.672 420.319 346.237 420.988 345.86 421.69C345.65 422.15 346.78 422.5 347.07 422.02C347.445 421.396 347.853 420.792 348.29 420.21C348.52 419.92 349.51 418.85 350.29 418.98L350.65 419.07C350.71 418.91 350.52 418.72 350.38 418.63L350.18 418.49Z" fill="#FAFAFA"/>
<path d="M354.07 419.62C353.721 419.579 353.369 419.656 353.07 419.84C352.685 420.118 352.347 420.455 352.07 420.84C351.61 421.504 351.249 422.232 351 423C350.79 423.61 352 423.81 352.13 423.41C352.444 422.324 353.041 421.34 353.86 420.56C354.225 420.224 354.669 419.983 355.15 419.86C355.15 419.74 355 419.67 354.88 419.65C354.76 419.63 354.25 419.62 354.07 419.62Z" fill="#FAFAFA"/>
<path d="M381 409.26C381 409.26 376.69 422.35 375.37 425.33C374.95 426.33 372.96 426.08 371.86 426.19C370.537 426.245 369.233 426.519 368 427C364.78 428.64 362.75 428.61 362.66 423.88C362.66 422.88 362.2 422.36 361.02 422.2C360.119 422.218 359.222 422.062 358.38 421.74C358.28 421.62 358.38 421.44 358.55 421.34C359.083 421.001 359.538 420.552 359.883 420.022C360.228 419.492 360.456 418.895 360.55 418.27C361.89 412.67 362.55 407.84 364.06 400.96L381 409.26Z" fill="#FFA8A7"/>
<path d="M391.42 279.78C391.42 279.78 384.83 287.67 380.85 302.44C377.242 316.155 374.497 330.082 372.63 344.14C371.68 350.43 370.98 354.91 369.27 366.36C367.85 375.89 361.59 411.36 361.59 411.36C361.59 411.36 366.18 415.36 370.04 416.8C373.64 418.16 376.97 418.7 378.29 418.16C378.29 418.16 382.72 406.78 388.2 391.88C390.845 385.054 392.954 378.033 394.51 370.88C395.23 367.19 395.06 360.63 394.99 357.32L424.45 311.82C426.829 309.002 428.691 305.786 429.95 302.32C433.82 292.6 428.88 278.58 428.88 278.58L391.42 279.78Z" fill="#263238"/>
<path d="M380.85 302.44C376.15 320 373.6 338.82 370.97 356.82C368.27 374.48 364.72 393.7 361.59 411.35C364.35 393.61 367.9 374.45 370.47 356.75C373.25 338.75 375.77 319.92 380.85 302.44Z" fill="white"/>
<path d="M420.41 292.56H384.23C382.881 295.773 381.752 299.074 380.85 302.44C377.49 315.069 374.912 327.894 373.13 340.84C374.01 346.76 375 352.84 375.93 357.02C378.36 368.02 379.87 375.86 381.8 380.41C383.73 384.96 388.34 391.41 388.36 391.41C390.93 384.71 392.986 377.823 394.51 370.81C395.23 367.12 395.06 360.56 394.99 357.25L416.39 324.25L418.05 314C423.52 305.08 422.91 298.4 420.41 292.56Z" fill="black"/>
<path d="M433.06 429.88C431.2 426.88 430.19 421.19 426.11 409.56L410.2 422.56L419.63 437.56C419.929 438.328 420.156 439.121 420.31 439.93C422.34 442.88 433.06 429.88 433.06 429.88Z" fill="#FFA8A7"/>
<path d="M438.67 436.22C438.67 436.05 438.74 434.65 438.67 434.48C438.27 432.97 437.34 432.55 436.14 431.71C434.938 430.896 433.831 429.951 432.84 428.89C432.44 428.33 432.36 428.04 431.74 427.79C430.932 427.537 430.079 427.464 429.239 427.574C428.4 427.685 427.595 427.977 426.88 428.43C423.44 430.23 422.39 432.43 422.59 434.77C422.74 436.56 422.89 438.95 421.3 440.02C420.64 440.47 419.6 437.6 419.6 437.6C418.6 439.23 420 441.5 420.71 444.82C421.123 446.654 421.157 448.553 420.81 450.4C420.46 453.31 420.06 453.3 418.51 453.5C417.18 453.68 413.4 453.43 411.1 455.03C410.224 455.541 409.53 456.313 409.114 457.238C408.698 458.164 408.581 459.195 408.78 460.19C409.19 461.31 412.64 466.74 425.22 464.71C428.87 464.12 436.54 458.38 436.43 457.85C436.365 457.302 436.365 456.748 436.43 456.2C436.43 454.91 436.52 453.62 436.58 452.34C436.532 451.109 436.606 449.876 436.8 448.66C437.032 447.674 437.186 446.67 437.26 445.66C437.5 443.07 437.75 440.49 437.99 437.91C438.12 437.12 438.77 437 438.67 436.22Z" fill="#37474F"/>
<path d="M440.26 435.71C441.5 436.91 440.74 440.4 439.08 444.58C438.34 446.43 436.97 449.63 437.37 453.02C437.77 456.41 437.84 458.02 436.97 459.61C435.6 462.1 428.28 465.29 423.97 466.29C426.577 462.633 428.095 458.314 428.35 453.83C428.79 446.34 429.35 441.51 432.79 438.18C437.12 434 440.26 435.71 440.26 435.71Z" fill="black"/>
<path d="M408.81 460.19C408.81 460.19 411.33 464.92 421.07 464.76C424.91 464.7 426.96 462.83 427.07 457.01C427.19 450.01 427.75 442.89 430.02 439.41C432.29 435.93 435.91 434.23 438.72 434.48C439.376 434.679 439.934 435.118 440.28 435.71C440.28 435.71 437.47 434.79 433.1 438.41C429.87 441.09 429 446.68 429.05 453.62C429.05 456.62 429.25 460 428.38 462.27C427.976 463.268 427.346 464.157 426.539 464.869C425.732 465.581 424.77 466.095 423.73 466.37C418.43 467.85 411.19 465.37 409.36 463.17C409.048 462.748 408.836 462.26 408.74 461.744C408.645 461.227 408.669 460.696 408.81 460.19Z" fill="#263238"/>
<path d="M420.51 452.23C420.115 452.509 419.835 452.921 419.72 453.39C419.676 453.989 419.795 454.589 420.065 455.126C420.334 455.663 420.744 456.117 421.25 456.44C421.84 456.81 422.35 456.68 421.42 455.44C420.824 454.475 420.509 453.364 420.51 452.23Z" fill="#FAFAFA"/>
<path d="M421 448.59C421 448.59 420.69 448.79 420.62 449.77C420.781 451.008 421.424 452.133 422.41 452.9C423.41 453.4 422.88 452.22 422.41 451.64C421.717 450.742 421.236 449.699 421 448.59Z" fill="#FAFAFA"/>
<path d="M420.69 444.58C420.69 444.58 420.35 444.67 420.69 446.01C421.163 446.857 421.911 447.516 422.81 447.88C423.47 447.96 423.81 447.63 422.98 447.04C422.36 446.58 420.81 445.23 420.69 444.58Z" fill="#FAFAFA"/>
<path d="M414.27 279.78C415.99 281.54 420.27 287.45 420.97 296.54C421.235 302.514 419.359 308.386 415.68 313.1C414.3 333.26 412.99 371.32 412.99 371.32C417.67 377.93 418.86 382.17 421.94 392C423.81 398 430.29 421.66 430.29 421.66C420.81 423.09 415.05 431.42 415.05 431.42C415.05 431.42 401.91 410.25 393.17 395.52C386.77 384.74 384.57 380.1 382.43 373.99C380.43 368.37 379.03 361.57 377.11 348.45C375.19 335.33 373.31 318.06 372.37 305.14C371.43 292.22 371.97 278.73 371.97 278.73L414.27 279.78Z" fill="#263238"/>
<path d="M415.05 431.42C410.52 424.25 401.57 409.8 397.18 402.55C391.43 392.82 385.02 383.28 381.68 372.37C379.012 361.357 377.008 350.194 375.68 338.94C374.27 327.71 373.15 316.44 372.4 305.14C372.86 310.78 373.403 316.413 374.03 322.04C375.82 338.9 378.03 355.8 382.19 372.24C385.45 383.09 391.81 392.67 397.49 402.38L415.08 431.38L415.05 431.42Z" fill="white"/>
<path d="M431.36 295.58C429.819 295.082 428.468 294.122 427.49 292.83C427.026 291.931 426.689 290.972 426.49 289.98C426.089 288.322 425.543 286.703 424.86 285.14L423.86 285.58C424.51 287.094 425.032 288.659 425.42 290.26C425.643 291.359 426.024 292.42 426.55 293.41C427.718 294.986 429.374 296.132 431.26 296.67C431.3 296.31 431.34 296 431.36 295.58Z" fill="black"/>
<path d="M405.47 307.13C405.705 307.131 405.94 307.108 406.17 307.06C407.75 306.71 408.98 305.65 411.43 302.52C413.29 300.13 413.1 298.42 412.79 295.58C412.67 294.53 411.57 288.96 411.51 287.49L410.46 288.07C410.53 289.58 411.59 294.64 411.7 295.7C412.02 298.52 412.16 299.81 410.57 301.84C408.3 304.74 407.22 305.71 405.93 306C404.64 306.29 399.15 305.36 397.67 304.34C396.82 303.75 395.4 296.47 394.56 290.05L393.48 290.2C393.9 293.44 395.4 304.1 397.05 305.2C398.52 306.25 403.27 307.19 405.47 307.13Z" fill="black"/>
<path d="M394.9 203.29L396.89 217.87L416.7 216.86L414.56 201.07L394.9 203.29Z" fill="#FFA8A7"/>
<path d="M387 176C385.48 177.93 380.82 183.19 380 184.57L384.44 187.26L387 176Z" fill="#F28F8F"/>
<path d="M387 176C384.859 179.009 382.521 181.872 380 184.57C381.986 181.447 384.336 178.57 387 176Z" fill="white"/>
<path d="M398 161.35C391.88 160.69 387.91 165.03 386.13 178.06C386.06 178.57 385.31 179.37 384.74 181.32C382.28 189.68 383.65 197.64 385.07 199.76C388.62 202.61 392.56 203.68 398.27 203.19C402.62 202.82 413.72 201.5 419.36 195.62C425.98 188.71 429.36 178.28 424.62 172.88C418 165.27 401.4 161.71 398 161.35Z" fill="#FFA8A7"/>
<path d="M398 161.35C388.8 160.58 387.53 171.82 386.21 178.57C383.7 183.32 383.32 189.03 383.71 194.32C383.802 196.205 384.265 198.053 385.07 199.76C384.19 198.077 383.643 196.24 383.46 194.35C382.9 188.99 383.25 183.2 385.77 178.35C386.98 171.57 388.77 160.14 398 161.35Z" fill="white"/>
<path d="M385.09 199.76C385.87 200.93 391.48 203.81 395 204.03L394.67 201.29C391.423 201.206 388.202 200.692 385.09 199.76Z" fill="#F28F8F"/>
<path d="M396.81 184.18C396.87 184.389 396.988 184.577 397.15 184.722C397.313 184.867 397.513 184.963 397.727 184.998C397.942 185.034 398.163 185.008 398.363 184.923C398.563 184.839 398.736 184.699 398.86 184.52C399.504 183.576 400.252 182.707 401.09 181.93C402.154 181.054 403.503 180.598 404.88 180.65C410.02 181.04 408.76 187.81 406.24 190.17C402.11 194.02 399.92 190.69 399.92 190.69C399.92 190.69 396.92 197.24 401.27 201.07C401.27 201.07 408.73 204.29 414.59 202.47C418.97 197.75 421.9 194.77 424.85 190.71C431.85 181.09 431.85 171.57 427.36 168.85C427.61 165.44 425.77 160.3 418.75 157.34C412.07 154.51 407.6 154.79 402.75 155.06C397.9 155.33 391.98 157.54 387.49 153.79C386.94 155.144 386.722 156.61 386.852 158.066C386.983 159.521 387.458 160.925 388.24 162.16C387.515 161.811 386.68 161.765 385.921 162.031C385.161 162.298 384.539 162.855 384.19 163.58C383.841 164.305 383.795 165.14 384.061 165.899C384.328 166.659 384.885 167.281 385.61 167.63C385.13 167.904 384.76 168.335 384.561 168.851C384.363 169.367 384.348 169.935 384.52 170.46C384.719 170.975 385.061 171.423 385.505 171.751C385.95 172.079 386.479 172.273 387.03 172.31C388.034 172.369 389.041 172.305 390.03 172.12C391.44 176.06 395.89 177.44 398.54 177.28C398.47 177.28 398.12 177.82 398.07 177.89C397.92 178.11 397.78 178.34 397.65 178.57C397.397 179.04 397.186 179.532 397.02 180.04C396.693 181.063 396.568 182.139 396.65 183.21C396.647 183.54 396.701 183.868 396.81 184.18Z" fill="#455A64"/>
<path d="M387.51 153.79C386.987 155.145 386.79 156.604 386.934 158.049C387.078 159.494 387.56 160.885 388.34 162.11L388.51 162.37L388.22 162.24C387.521 161.931 386.729 161.907 386.013 162.171C385.296 162.436 384.711 162.97 384.38 163.659C384.05 164.348 384.001 165.138 384.244 165.863C384.486 166.587 385.001 167.189 385.68 167.54L385.86 167.63L385.68 167.72C383.17 169.32 385.01 172.51 387.68 172.3C388.484 172.305 389.286 172.245 390.08 172.12C388.897 172.395 387.672 172.445 386.47 172.27C384.25 171.78 383.47 168.71 385.58 167.54V167.72C384.831 167.362 384.254 166.721 383.978 165.938C383.701 165.155 383.747 164.294 384.105 163.545C384.463 162.796 385.104 162.219 385.887 161.943C386.67 161.666 387.531 161.712 388.28 162.07L388.17 162.21C387.385 160.966 386.914 159.549 386.798 158.083C386.681 156.616 386.922 155.143 387.5 153.79H387.51Z" fill="white"/>
<path d="M424.77 211.38C429.91 214.26 433.82 223.86 433.44 231.87C433.2 236.95 431.44 250.04 429.9 261.62C429.42 265.27 430.9 271.43 431.54 278.83C432.04 284.32 432.11 290.16 432.11 290.16C432.11 290.16 425.22 298.68 406.32 299.79C382.18 301.22 371.49 295.38 371.49 295.38C371.49 295.38 371.35 275.72 371.93 260.14C372.79 237.05 372.84 230.3 376.45 222.43C377.64 220.11 378.89 214.94 382.82 213.91C385.94 213.1 393.12 211.38 395.97 210.91C400.63 212.11 412.73 212.21 415.73 209.66L415.68 208.99C420.87 209 421.6 209.61 424.77 211.38Z" fill="#009AD8"/>
<path d="M295.46 270.46C296.25 270.64 297.31 270.23 298.46 269.22C300.793 266.994 302.359 264.084 302.93 260.91C303.14 259.4 302.93 258.29 302.32 257.73L297.59 253.2C296.933 252.67 296.132 252.349 295.291 252.277C294.45 252.206 293.607 252.388 292.87 252.8C288.87 254.86 285.69 260.8 286.15 265.28C286.36 267.29 295 270.35 295.46 270.46Z" fill="#455A64"/>
<path d="M302.68 260.45C302.821 259.813 302.751 259.147 302.479 258.553C302.207 257.96 301.75 257.471 301.175 257.161C300.601 256.851 299.941 256.737 299.296 256.836C298.65 256.935 298.055 257.242 297.6 257.71C296.172 258.702 294.998 260.017 294.172 261.548C293.347 263.078 292.894 264.782 292.85 266.52C292.705 267.159 292.774 267.829 293.046 268.425C293.317 269.022 293.777 269.513 294.354 269.824C294.931 270.135 295.594 270.248 296.242 270.146C296.89 270.044 297.486 269.733 297.94 269.26C299.37 268.271 300.546 266.957 301.37 265.425C302.193 263.894 302.643 262.189 302.68 260.45Z" fill="#263238"/>
<path d="M327.48 284.21C327.824 284.345 328.197 284.39 328.563 284.339C328.929 284.288 329.276 284.144 329.57 283.92C330.397 283.343 331.077 282.581 331.554 281.693C332.032 280.805 332.294 279.818 332.32 278.81C332.345 278.442 332.274 278.073 332.115 277.74C331.956 277.407 331.713 277.121 331.41 276.91L301.29 259.73C300.843 259.498 300.346 259.381 299.842 259.392C299.339 259.402 298.846 259.539 298.41 259.79C297.298 260.396 296.387 261.313 295.787 262.428C295.187 263.543 294.924 264.808 295.03 266.07C295.063 266.572 295.221 267.057 295.49 267.482C295.759 267.906 296.13 268.256 296.57 268.5L327.48 284.21Z" fill="#455A64"/>
<path d="M332.32 278.81C332.345 278.442 332.274 278.073 332.115 277.74C331.956 277.407 331.713 277.121 331.41 276.91C331.077 276.751 330.706 276.688 330.339 276.726C329.972 276.765 329.623 276.905 329.33 277.13C328.474 277.705 327.77 278.48 327.281 279.388C326.791 280.295 326.53 281.309 326.52 282.34C326.495 282.714 326.575 283.088 326.752 283.418C326.929 283.749 327.195 284.023 327.52 284.21C327.864 284.345 328.237 284.39 328.603 284.339C328.969 284.288 329.316 284.144 329.61 283.92C330.429 283.339 331.101 282.574 331.572 281.687C332.043 280.8 332.299 279.814 332.32 278.81Z" fill="#263238"/>
<path d="M365.25 274.35C367.97 273.44 369.98 270.29 373.88 262.17C378.76 252.07 381.39 249.79 384.97 239.45C387.97 231.88 383.97 217.92 382.15 215.01C376.06 217.18 371.81 219.19 367.7 227.73C364.01 235.41 356.62 250.91 353.25 257.73C353.25 257.73 333.64 261.96 328.37 262.31C326.326 262.491 324.271 262.107 322.43 261.2C321.329 260.635 320.107 260.347 318.87 260.36C318.385 260.343 317.9 260.414 317.44 260.57C316.58 260.987 315.817 261.58 315.2 262.31C313.886 263.394 312.507 264.396 311.07 265.31C309.48 266.5 307.61 267.31 306 268.52C304.62 269.52 303.1 270.39 302.23 271.93C302.068 272.179 301.959 272.458 301.91 272.75C301.884 273.004 301.913 273.261 301.996 273.503C302.079 273.745 302.213 273.966 302.39 274.15C302.748 274.521 303.196 274.793 303.69 274.94C304.39 275.061 305.065 275.294 305.69 275.63C306.34 276.11 306.39 277.06 306.98 277.63C307.9 278.5 309.41 278.37 310.46 279.09C311.27 279.65 311.72 280.67 312.59 281.09C313.064 281.3 313.572 281.422 314.09 281.45C315.01 281.54 315.92 281.82 316.84 281.82C317.94 281.82 318.42 281.3 319.33 280.82C322.47 279.07 324.17 276.97 329.72 276.6C333.43 276.36 362.53 275.26 365.25 274.35Z" fill="#FFA8A7"/>
<path d="M382.74 213.91C376.11 215.49 372.19 217.91 367.83 225.91C363.83 233.32 352.83 257 352.83 257L341.83 260.09C340.953 261.373 340.35 262.822 340.057 264.348C339.765 265.874 339.789 267.444 340.13 268.96C341.18 274.1 343.46 276.41 343.46 276.41C343.46 276.41 349.07 276.25 358.63 275.92C368.19 275.59 368.88 273.38 370.98 269.22C373.08 265.06 385.98 239.96 385.98 239.96C385.98 239.96 391.2 221.4 382.74 213.91Z" fill="#455A64"/>
<path d="M396 211C391.54 211.82 387.14 213 382.76 214.1C379.459 214.752 376.368 216.205 373.76 218.33C369.52 222.14 367.27 227.53 364.76 232.53C360.76 240.67 357.01 248.91 353.16 257.11V257.21H353.05L342.05 260.27C336.71 261.08 331.05 262.87 325.63 262.37C323.76 262.2 322.19 260.99 320.41 260.64C319.526 260.455 318.614 260.455 317.73 260.64C316.895 260.973 316.156 261.51 315.58 262.2C312.81 264.68 309.5 266.37 306.41 268.34C304.96 269.43 303.24 270.34 302.31 271.94C303.22 270.3 304.93 269.38 306.31 268.27C309.36 266.27 312.66 264.48 315.31 262.02C315.912 261.291 316.69 260.727 317.57 260.38C318.493 260.185 319.447 260.185 320.37 260.38C322.2 260.72 323.71 261.91 325.58 262.08C331 262.53 336.58 260.74 341.86 259.89L352.8 256.78L352.65 256.91C356.417 248.664 360.307 240.477 364.32 232.35C366.89 227.35 369.19 221.92 373.49 218.1C376.162 215.879 379.386 214.424 382.82 213.89C386.65 212.82 391.68 211.74 395.96 210.99L396 211Z" fill="white"/>
<path opacity="0.3" d="M378.51 357C373.95 374.051 370.609 391.405 368.51 408.93C367.83 414.6 366.97 420.88 362.58 424.52C359.21 427.31 354.58 427.83 350.2 428.15C342.02 428.73 333.15 428.78 326.29 424.5C327.17 426.93 329.56 429.82 333.41 432.08C337.87 434.69 347.67 436.46 350.56 437.27C353.45 438.08 357.88 441.11 360.56 442.49C365.46 444.99 369.46 444.7 371.69 443.59C372.077 443.341 372.408 443.016 372.665 442.634C372.921 442.253 373.096 441.822 373.18 441.37C373.77 439.37 373.72 438.94 373.5 438.89C374.132 436.973 374.568 434.996 374.8 432.99C375.39 426.99 376.8 425.24 375.74 424.6C376.31 423.16 377.17 420.74 378.03 418.25C378.125 418.229 378.218 418.203 378.31 418.17C378.31 418.17 382.74 406.79 388.23 391.9C388.6 390.9 388.95 389.9 389.29 388.96C385.57 382.59 383.67 378.83 382.45 374.01C381.23 369.19 379.91 364.59 378.51 357ZM449.86 264C449.47 259.081 448.479 254.229 446.91 249.55C445.67 245.68 440.04 226.85 435.82 219.11C431.6 211.37 427.18 209.74 419.27 209.11C418.078 208.982 416.879 208.932 415.68 208.96C415.68 208.96 415.68 209.34 415.68 209.53L414.68 202.26C418.98 197.63 421.89 194.66 424.8 190.65C431.8 181.02 431.8 171.51 427.31 168.79C427.57 165.37 425.72 160.24 418.71 157.28C416.469 156.308 414.119 155.609 411.71 155.2C409.353 155.476 407.029 155.982 404.77 156.71C401.66 157.71 398.57 159.24 396.59 161.84C394.87 164.12 394.16 166.98 393.49 169.75C391.34 178.64 389.19 187.7 389.9 196.81C389.933 198.365 390.316 199.893 391.02 201.28C391.465 201.979 392.047 202.58 392.731 203.048C393.415 203.515 394.187 203.839 395 204C395 204 399.31 204.28 401.47 204.32C401.77 206.16 402.2 208.92 402.47 210.76C402.635 211.37 402.607 212.017 402.39 212.61C402.16 212.947 401.865 213.233 401.521 213.451C401.177 213.669 400.792 213.815 400.39 213.88C392.57 216.03 383.45 216.22 377.95 222.18C376.014 224.52 374.461 227.153 373.35 229.98L364.77 248.87C362.91 252.98 360.92 257.25 357.37 260.03C350.96 265.03 341.81 263.69 333.91 265.64C328.18 267.06 323.08 270.25 317.41 271.83C316.11 272.2 314.81 272.55 313.49 272.83C312.17 273.11 310.71 272.98 309.33 273.19C308.804 273.244 308.308 273.46 307.912 273.81C307.515 274.16 307.238 274.625 307.12 275.14C307.084 275.691 307.177 276.242 307.39 276.75C307.659 277.423 308.114 278.005 308.7 278.43C309.313 278.549 309.902 278.772 310.44 279.09C311.26 279.65 311.7 280.67 312.57 281.09C313.043 281.302 313.552 281.42 314.07 281.44C314.979 281.617 315.897 281.741 316.82 281.81C317.92 281.81 318.4 281.29 319.31 280.81L320.02 280.39C322.74 278.74 324.59 276.92 329.71 276.58L330.77 276.52C333.09 276.4 337.88 276.19 343.19 275.94C343.41 276.21 343.54 276.34 343.54 276.34C343.54 276.34 349.15 276.19 358.71 275.86C368.27 275.53 368.96 273.31 371.06 269.16L371.7 267.9V268C374.77 262 380.23 251.27 382.03 247.76C382.03 247.76 381.37 276.76 381.44 289.35C381.57 312.82 385.25 336.1 388.91 359.28C389.82 364.98 392.24 370.4 394.27 375.83C396.51 381.83 398.82 387.83 401.27 393.73C406.03 405.428 411.791 416.694 418.49 427.4C420.098 429.648 421.44 432.074 422.49 434.63C423.75 438.24 423.68 442.16 423.56 445.97C423.637 449.111 423.181 452.242 422.21 455.23C420.21 460.57 413.26 461.08 408.94 457.93C408.704 458.667 408.666 459.454 408.83 460.21C408.686 460.718 408.659 461.251 408.75 461.771C408.842 462.291 409.051 462.783 409.36 463.21C411.19 465.45 418.43 467.9 423.73 466.41L423.99 466.33C428.3 465.33 435.62 462.15 436.99 459.66C437.87 458.07 437.8 456.46 437.39 453.07C436.98 449.68 438.39 446.48 439.1 444.62C440.77 440.44 441.52 436.96 440.28 435.75C439.933 435.159 439.376 434.72 438.72 434.52C438.32 433.02 437.39 432.6 436.2 431.76C434.99 430.949 433.879 430 432.89 428.93C432.697 428.578 432.439 428.266 432.13 428.01C431.49 426.47 430.87 424.43 430.06 421.76H430.32C430.32 421.76 423.81 398 421.94 392C418.86 382.17 417.67 377.93 412.99 371.32C412.99 371.32 413.84 346.67 414.89 326.54L424.45 311.77C426.307 309.605 427.831 307.175 428.97 304.56C428.939 304.615 428.913 304.672 428.89 304.73C429.078 304.786 429.274 304.81 429.47 304.8C431.59 304.8 433.1 302.8 434.67 301.71C434.803 301.589 434.964 301.504 435.139 301.462C435.314 301.42 435.497 301.423 435.67 301.47L435.78 301.4C437.47 300.59 437.57 304.4 437.54 305.21C437.401 307.135 436.935 309.022 436.16 310.79C434.98 313.73 433.49 316.69 433.63 319.85C433.63 320.07 433.66 320.289 433.72 320.5C434.42 320.15 434.72 319.01 435.05 318.41C435.553 317.715 436.215 317.149 436.98 316.76C437.772 316.099 438.52 315.388 439.22 314.63C439.96 313.99 441.1 314.09 441.96 313.44C442.82 312.79 442.69 311.96 443.23 311.3C443.77 310.64 444.6 310.45 445.15 309.77C446.01 308.723 446.579 307.467 446.8 306.13C447.18 303.3 447.91 300.56 447.9 297.71C447.89 294.86 447.9 292.38 448.05 289.71C448.32 285.48 449.18 278.65 449.52 272.97C449.684 272.844 449.823 272.688 449.93 272.51C450.111 269.676 450.087 266.832 449.86 264ZM439.24 286.07C438.66 288.22 437 289.86 435.73 291.68C433.19 295.32 432.14 299.85 429.49 303.42C429.65 303.04 429.82 302.65 429.98 302.24C431.244 298.637 431.708 294.801 431.34 291C431.616 290.753 431.874 290.486 432.11 290.2C432.11 290.2 432.04 284.36 431.54 278.88C430.87 271.47 429.42 265.32 429.9 261.67C430.47 257.33 431.08 252.77 431.62 248.5C433.157 251.533 434.493 254.663 435.62 257.87C438.32 265.72 438.99 274.08 439.42 282.31C439.557 283.569 439.496 284.841 439.24 286.08V286.07Z" fill="black"/>
<defs>
<filter id="filter0_b_616_3211" x="17" y="19.4619" width="254.45" height="311.104" filterUnits="userSpaceOnUse" color-interpolation-filters="sRGB">
<feFlood flood-opacity="0" result="BackgroundImageFix"/>
<feGaussianBlur in="BackgroundImage" stdDeviation="15"/>
<feComposite in2="SourceAlpha" operator="in" result="effect1_backgroundBlur_616_3211"/>
<feBlend mode="normal" in="SourceGraphic" in2="effect1_backgroundBlur_616_3211" result="shape"/>
</filter>
</defs>
</svg>
