<svg width="134" height="54" viewBox="0 0 134 54" fill="none" xmlns="http://www.w3.org/2000/svg">
<path d="M0.78 4V23.24H5.694V17.208H7.618C10.608 17.208 11.908 16.662 13.234 15.544C14.456 14.504 15.262 12.45 15.262 10.5C15.262 8.55 14.508 6.652 13 5.404C11.96 4.546 10.634 4 7.072 4H0.78ZM5.694 8.316H7.306C7.852 8.316 8.658 8.316 9.334 8.602C10.01 8.888 10.556 9.434 10.556 10.578C10.556 11.722 10.036 12.32 9.386 12.606C8.736 12.892 7.956 12.892 7.488 12.892H5.694V8.316Z" fill="url(#paint0_linear_612_3495)"/>
<path d="M30.1135 17.52C30.4515 14.868 29.9055 12.554 28.0855 10.604C26.7335 9.174 24.8355 8.316 22.6255 8.316C18.2315 8.316 15.0595 12.034 15.0595 16.064C15.0595 20.354 18.5695 23.708 22.7035 23.708C24.1855 23.708 25.6155 23.266 26.8115 22.408C28.0335 21.576 29.0475 20.328 29.7495 18.716H25.3295C24.8095 19.47 24.0815 20.068 22.7035 20.068C21.0135 20.068 19.5575 19.054 19.3755 17.52H30.1135ZM19.4275 14.244C19.5315 13.568 20.4155 11.956 22.6515 11.956C24.8875 11.956 25.7715 13.568 25.8755 14.244H19.4275Z" fill="url(#paint1_linear_612_3495)"/>
<path d="M31.1921 16.012C31.1921 19.548 33.7141 23.682 38.9661 23.682C44.2181 23.682 46.7401 19.548 46.7401 16.012C46.7401 12.476 44.2181 8.342 38.9661 8.342C33.7141 8.342 31.1921 12.476 31.1921 15.986V16.012ZM35.5081 16.012C35.5081 13.906 37.0941 12.372 38.9661 12.372C40.8381 12.372 42.4241 13.906 42.4241 16.012C42.4241 18.118 40.8381 19.652 38.9661 19.652C37.0941 19.652 35.5081 18.118 35.5081 16.038V16.012Z" fill="url(#paint2_linear_612_3495)"/>
<path d="M48.4045 28.05H52.7205V21.94C53.2405 22.486 54.4625 23.734 57.0625 23.734C61.1705 23.734 64.0825 20.328 64.0825 16.168C64.0825 12.814 62.1585 8.316 57.0365 8.316C54.8265 8.316 53.3965 9.304 52.4605 10.396V8.81H48.4045V28.05ZM59.7665 16.038C59.7665 17.858 58.4145 19.704 56.1525 19.704C55.1385 19.704 54.2285 19.288 53.5785 18.638C52.9285 17.988 52.5385 17.078 52.5385 16.064C52.5385 15.024 52.9285 14.088 53.5525 13.438C54.2025 12.762 55.1125 12.346 56.1525 12.346C58.5185 12.346 59.7665 14.322 59.7665 16.012V16.038Z" fill="url(#paint3_linear_612_3495)"/>
<path d="M65.7534 23.24H70.0694V4H65.7534V23.24Z" fill="url(#paint4_linear_612_3495)"/>
<path d="M86.6868 17.52C87.0248 14.868 86.4788 12.554 84.6588 10.604C83.3068 9.174 81.4088 8.316 79.1988 8.316C74.8048 8.316 71.6328 12.034 71.6328 16.064C71.6328 20.354 75.1428 23.708 79.2768 23.708C80.7588 23.708 82.1888 23.266 83.3848 22.408C84.6068 21.576 85.6208 20.328 86.3228 18.716H81.9028C81.3828 19.47 80.6548 20.068 79.2768 20.068C77.5868 20.068 76.1308 19.054 75.9488 17.52H86.6868ZM76.0008 14.244C76.1048 13.568 76.9888 11.956 79.2248 11.956C81.4608 11.956 82.3448 13.568 82.4488 14.244H76.0008Z" fill="url(#paint5_linear_612_3495)"/>
<path d="M14.716 40.038C14.404 40.714 13.156 43.288 10.088 43.288C6.89 43.288 4.914 40.48 4.914 37.568C4.914 34.838 6.76 31.952 10.062 31.952C12.714 31.952 14.17 33.876 14.716 35.306H19.864C19.344 32.29 16.12 27.636 10.088 27.636C3.796 27.636 0 32.68 0 37.594C0 42.794 4.108 47.604 10.14 47.604C14.794 47.604 18.746 44.588 19.864 40.038H14.716Z" fill="url(#paint6_linear_612_3495)"/>
<path d="M21.7108 47.24H26.0268V39.232C26.0268 38.868 26.0268 38.166 26.3388 37.542C26.6248 36.918 27.2488 36.372 28.4448 36.372C29.3808 36.372 29.9528 36.736 30.3168 37.282C30.6548 37.828 30.7588 38.582 30.7588 39.388V47.24H35.0748V39.18C35.0748 37.334 34.8668 35.618 34.0868 34.37C33.3068 33.096 32.0068 32.316 29.7968 32.316C28.2628 32.316 26.8068 32.836 26.0268 34.136V28H21.7108V47.24Z" fill="url(#paint7_linear_612_3495)"/>
<path d="M52.7765 32.81H48.4605V34.344C47.8885 33.46 46.5625 32.316 44.1965 32.316C40.3485 32.316 36.9425 35.28 36.9425 40.012C36.9425 44.146 39.6205 47.734 44.1965 47.734C45.8865 47.734 47.6805 47.084 48.4605 45.68V47.24H52.7765V32.81ZM41.2585 40.064C41.2585 38.426 42.3505 36.346 44.8205 36.346C46.6405 36.346 47.6285 37.36 48.0965 38.348C48.3825 38.946 48.5126 39.596 48.4605 40.246C48.4085 40.896 48.2265 41.52 47.8625 42.092C47.3165 42.976 46.3805 43.704 44.8465 43.704C42.2465 43.704 41.2585 41.416 41.2585 40.09V40.064Z" fill="url(#paint8_linear_612_3495)"/>
<path d="M55.4052 47.24H59.7212V28H55.4052V47.24Z" fill="url(#paint9_linear_612_3495)"/>
<path d="M62.3246 47.24H66.6406V28H62.3246V47.24Z" fill="url(#paint10_linear_612_3495)"/>
<path d="M83.5181 41.52C83.8561 38.868 83.3101 36.554 81.4901 34.604C80.1381 33.174 78.2401 32.316 76.0301 32.316C71.6361 32.316 68.4641 36.034 68.4641 40.064C68.4641 44.354 71.9741 47.708 76.1081 47.708C77.5901 47.708 79.0201 47.266 80.2161 46.408C81.4381 45.576 82.4521 44.328 83.1541 42.716H78.7341C78.2141 43.47 77.4861 44.068 76.1081 44.068C74.4181 44.068 72.9621 43.054 72.7801 41.52H83.5181ZM72.8321 38.244C72.9361 37.568 73.8201 35.956 76.0561 35.956C78.2921 35.956 79.1761 37.568 79.2801 38.244H72.8321Z" fill="url(#paint11_linear_612_3495)"/>
<path d="M85.5327 47.24H89.8487V39.388C89.8487 37.906 90.1867 36.372 92.3187 36.372C94.2427 36.372 94.5807 37.776 94.5807 39.362V47.24H98.8967V38.218C98.8967 36.268 98.4027 32.316 93.5407 32.316C90.9667 32.316 90.0567 33.642 89.5627 34.344V32.81H85.5327V47.24Z" fill="url(#paint12_linear_612_3495)"/>
<path d="M116.39 32.81H112.074V34.162C111.242 32.914 109.656 32.342 108.044 32.342C104.3 32.342 100.764 35.176 100.764 40.116C100.764 44.744 104.118 47.708 108.044 47.708C110.306 47.708 111.554 46.486 112.048 45.654V46.512C112.048 49.008 110.176 50.022 108.538 50.022C108.408 50.022 107.914 50.022 107.394 49.84C106.9 49.658 106.328 49.294 106.016 48.592H101.024C101.31 50.646 103.208 53.662 108.226 53.662C111.788 53.662 114.414 52.076 115.532 50.256C116.234 49.034 116.39 47.656 116.39 45.498V32.81ZM105.08 39.96C105.08 37.854 106.718 36.372 108.564 36.372C109.708 36.372 110.592 36.788 111.164 37.49C111.762 38.166 112.074 39.128 112.074 40.194C112.022 41.208 111.658 42.066 111.06 42.69C110.436 43.314 109.604 43.678 108.538 43.678C106.744 43.678 105.08 42.274 105.08 39.986V39.96Z" fill="url(#paint13_linear_612_3495)"/>
<path d="M133.222 41.52C133.56 38.868 133.014 36.554 131.194 34.604C129.842 33.174 127.944 32.316 125.734 32.316C121.34 32.316 118.168 36.034 118.168 40.064C118.168 44.354 121.678 47.708 125.812 47.708C127.294 47.708 128.724 47.266 129.92 46.408C131.142 45.576 132.156 44.328 132.858 42.716H128.438C127.918 43.47 127.19 44.068 125.812 44.068C124.122 44.068 122.666 43.054 122.484 41.52H133.222ZM122.536 38.244C122.64 37.568 123.524 35.956 125.76 35.956C127.996 35.956 128.88 37.568 128.984 38.244H122.536Z" fill="url(#paint14_linear_612_3495)"/>
<path fill-rule="evenodd" clip-rule="evenodd" d="M95.9955 16.2561C92.8329 8.49331 98.5438 0 106.926 0H107.392C113.653 0 118.729 5.07565 118.729 11.3368C118.729 18.3305 113.059 24 106.066 24H94.7251C94.4174 24 94.1433 23.8058 94.0411 23.5156C93.939 23.2253 94.0312 22.9022 94.2711 22.7096L97.1301 20.4136C97.3801 20.2128 97.4685 19.8716 97.3475 19.5747L95.9955 16.2561ZM107.998 7.90334C107.998 7.30267 107.511 6.81573 106.91 6.81573C106.31 6.81573 105.823 7.30267 105.823 7.90334V10.8037H102.922C102.322 10.8037 101.835 11.2906 101.835 11.8913C101.835 12.492 102.322 12.9789 102.922 12.9789H105.823V15.8792C105.823 16.4798 106.31 16.9668 106.91 16.9668C107.511 16.9668 107.998 16.4798 107.998 15.8792V12.9789H110.898C111.499 12.9789 111.986 12.492 111.986 11.8913C111.986 11.2906 111.499 10.8037 110.898 10.8037H107.998V7.90334Z" fill="white"/>
<defs>
<linearGradient id="paint0_linear_612_3495" x1="-0.962012" y1="-3.48727" x2="142.244" y2="32.8146" gradientUnits="userSpaceOnUse">
<stop stop-color="#384CFF"/>
<stop offset="1" stop-color="#00A3FF"/>
</linearGradient>
<linearGradient id="paint1_linear_612_3495" x1="-0.962012" y1="-3.48727" x2="142.244" y2="32.8146" gradientUnits="userSpaceOnUse">
<stop stop-color="#384CFF"/>
<stop offset="1" stop-color="#00A3FF"/>
</linearGradient>
<linearGradient id="paint2_linear_612_3495" x1="-0.962012" y1="-3.48727" x2="142.244" y2="32.8146" gradientUnits="userSpaceOnUse">
<stop stop-color="#384CFF"/>
<stop offset="1" stop-color="#00A3FF"/>
</linearGradient>
<linearGradient id="paint3_linear_612_3495" x1="-0.962012" y1="-3.48727" x2="142.244" y2="32.8146" gradientUnits="userSpaceOnUse">
<stop stop-color="#384CFF"/>
<stop offset="1" stop-color="#00A3FF"/>
</linearGradient>
<linearGradient id="paint4_linear_612_3495" x1="-0.962012" y1="-3.48727" x2="142.244" y2="32.8146" gradientUnits="userSpaceOnUse">
<stop stop-color="#384CFF"/>
<stop offset="1" stop-color="#00A3FF"/>
</linearGradient>
<linearGradient id="paint5_linear_612_3495" x1="-0.962012" y1="-3.48727" x2="142.244" y2="32.8146" gradientUnits="userSpaceOnUse">
<stop stop-color="#384CFF"/>
<stop offset="1" stop-color="#00A3FF"/>
</linearGradient>
<linearGradient id="paint6_linear_612_3495" x1="-0.962012" y1="-3.48727" x2="142.244" y2="32.8146" gradientUnits="userSpaceOnUse">
<stop stop-color="#384CFF"/>
<stop offset="1" stop-color="#00A3FF"/>
</linearGradient>
<linearGradient id="paint7_linear_612_3495" x1="-0.962012" y1="-3.48727" x2="142.244" y2="32.8146" gradientUnits="userSpaceOnUse">
<stop stop-color="#384CFF"/>
<stop offset="1" stop-color="#00A3FF"/>
</linearGradient>
<linearGradient id="paint8_linear_612_3495" x1="-0.962012" y1="-3.48727" x2="142.244" y2="32.8146" gradientUnits="userSpaceOnUse">
<stop stop-color="#384CFF"/>
<stop offset="1" stop-color="#00A3FF"/>
</linearGradient>
<linearGradient id="paint9_linear_612_3495" x1="-0.962012" y1="-3.48727" x2="142.244" y2="32.8146" gradientUnits="userSpaceOnUse">
<stop stop-color="#384CFF"/>
<stop offset="1" stop-color="#00A3FF"/>
</linearGradient>
<linearGradient id="paint10_linear_612_3495" x1="-0.962012" y1="-3.48727" x2="142.244" y2="32.8146" gradientUnits="userSpaceOnUse">
<stop stop-color="#384CFF"/>
<stop offset="1" stop-color="#00A3FF"/>
</linearGradient>
<linearGradient id="paint11_linear_612_3495" x1="-0.962012" y1="-3.48727" x2="142.244" y2="32.8146" gradientUnits="userSpaceOnUse">
<stop stop-color="#384CFF"/>
<stop offset="1" stop-color="#00A3FF"/>
</linearGradient>
<linearGradient id="paint12_linear_612_3495" x1="-0.962012" y1="-3.48727" x2="142.244" y2="32.8146" gradientUnits="userSpaceOnUse">
<stop stop-color="#384CFF"/>
<stop offset="1" stop-color="#00A3FF"/>
</linearGradient>
<linearGradient id="paint13_linear_612_3495" x1="-0.962012" y1="-3.48727" x2="142.244" y2="32.8146" gradientUnits="userSpaceOnUse">
<stop stop-color="#384CFF"/>
<stop offset="1" stop-color="#00A3FF"/>
</linearGradient>
<linearGradient id="paint14_linear_612_3495" x1="-0.962012" y1="-3.48727" x2="142.244" y2="32.8146" gradientUnits="userSpaceOnUse">
<stop stop-color="#384CFF"/>
<stop offset="1" stop-color="#00A3FF"/>
</linearGradient>
</defs>
</svg>
